<?xml version="1.0" encoding="utf-8"?>
<!-- Generator: Adobe Illustrator 19.1.0, SVG Export Plug-In . SVG Version: 6.00 Build 0)  -->
<!DOCTYPE svg PUBLIC "-//W3C//DTD SVG 1.1//EN" "http://www.w3.org/Graphics/SVG/1.1/DTD/svg11.dtd">
<svg version="1.1" id="Livello_1" xmlns="http://www.w3.org/2000/svg" xmlns:xlink="http://www.w3.org/1999/xlink" x="0px" y="0px"
	 viewBox="-227 350.9 140 140" style="enable-background:new -227 350.9 140 140;" xml:space="preserve">
<style type="text/css">
	.st0{fill:#D2ECF9;}
	.st1{fill:#555555;}
	.st2{fill:#333333;}
	.st3{fill:#FF3D4F;}
	.st4{fill:#F1E87A;}
	.st5{fill:#7FB165;}
	.st6{fill:#FFFFFF;}
</style>
<g>
	<circle class="st0" cx="-157" cy="420.9" r="70"/>
	<path class="st1" d="M-122,397.9h-70h-5v5v2v42c0,2.8,2.2,5,5,5h70c2.8,0,5-2.2,5-5v-42v-2v-5H-122z"/>
	<path class="st2" d="M-122,387.9h-70c-2.8,0-5,2.2-5,5v5h5h70h5v-5C-117,390.1-119.2,387.9-122,387.9z"/>
	<circle class="st3" cx="-190.2" cy="393.1" r="2"/>
	<circle class="st4" cx="-184.6" cy="393.1" r="2"/>
	<circle class="st5" cx="-179" cy="393.1" r="2"/>
	<path class="st6" d="M-162.9,431.4c-0.4,0.3-0.6,0.8-0.6,1.4c0,1.1,0.9,1.9,1.9,1.9c0.5,0,1-0.2,1.4-0.6l9.1-9.1
		c0.2-0.2,0.3-0.4,0.4-0.6c0,0,0,0,0,0c0-0.1,0.1-0.2,0.1-0.3c0,0,0,0,0,0c0-0.1,0-0.3,0-0.4c0-0.3-0.1-0.5-0.2-0.8
		c-0.1-0.2-0.2-0.4-0.4-0.6l0,0l-9.1-9.1l0,0c-0.3-0.4-0.8-0.6-1.4-0.6c-1.1,0-1.9,0.9-1.9,1.9c0,0.5,0.2,1,0.6,1.4l7.8,7.8
		L-162.9,431.4L-162.9,431.4z"/>
</g>
</svg>
