<?xml version="1.0" encoding="utf-8"?>
<!-- Generator: Adobe Illustrator 17.1.0, SVG Export Plug-In . SVG Version: 6.00 Build 0)  -->
<!DOCTYPE svg PUBLIC "-//W3C//DTD SVG 1.1//EN" "http://www.w3.org/Graphics/SVG/1.1/DTD/svg11.dtd">
<svg version="1.1" id="Livello_1" xmlns="http://www.w3.org/2000/svg" xmlns:xlink="http://www.w3.org/1999/xlink" x="0px" y="0px"
	 viewBox="0 0 140 140" enable-background="new 0 0 140 140" xml:space="preserve">
<g>
	<circle fill="#D2ECF9" cx="70" cy="70" r="70"/>
	<path fill="#555555" d="M105,47H35h-5v5v2v42c0,2.75,2.25,5,5,5h70c2.75,0,5-2.25,5-5V54v-2v-5H105z"/>
	<path fill="#333333" d="M105,37H35c-2.75,0-5,2.25-5,5v5h5h70h5v-5C110,39.25,107.75,37,105,37z"/>
	<circle fill="#FF3D4F" cx="36.787" cy="42.162" r="2"/>
	<circle fill="#F1E87A" cx="42.388" cy="42.162" r="2"/>
	<circle fill="#7FB165" cx="47.987" cy="42.162" r="2"/>
	<path fill="#FFFFFF" d="M74.519,80.53l-7.784-7.784l7.769-7.769c0.357-0.35,0.58-0.836,0.58-1.375c0-1.064-0.862-1.926-1.926-1.926
		c-0.534,0-1.016,0.217-1.365,0.568l-0.004-0.004l-9.145,9.145l0.003,0.003c-0.174,0.174-0.315,0.382-0.413,0.612
		c-0.097,0.23-0.151,0.484-0.151,0.75c0,0.134,0.014,0.265,0.04,0.392c0.003,0.015,0.01,0.029,0.014,0.044
		c0.026,0.111,0.058,0.219,0.102,0.322c0.002,0.004,0.004,0.007,0.006,0.011c0.1,0.229,0.242,0.434,0.418,0.606l9.119,9.119
		c0.35,0.357,0.836,0.58,1.375,0.58c1.064,0,1.926-0.862,1.926-1.926c0-0.534-0.217-1.016-0.568-1.365L74.519,80.53z"/>
</g>
</svg>
