<?xml version="1.0" encoding="utf-8"?>
<!-- Generator: Adobe Illustrator 17.1.0, SVG Export Plug-In . SVG Version: 6.00 Build 0)  -->
<!DOCTYPE svg PUBLIC "-//W3C//DTD SVG 1.1//EN" "http://www.w3.org/Graphics/SVG/1.1/DTD/svg11.dtd">
<svg version="1.1" id="Livello_1" xmlns="http://www.w3.org/2000/svg" xmlns:xlink="http://www.w3.org/1999/xlink" x="0px" y="0px"
	 viewBox="0 0 140 140" enable-background="new 0 0 140 140" xml:space="preserve">
<g>
	<circle fill="#D2ECF9" cx="70" cy="70" r="70"/>
	<path fill="#E48A5F" d="M44.579,84.78c0,0-11.782,5.178-14.22,2.74c-2.319-2.319,7.195-24.321,11.536-26.64
		c3.428-1.831,17.458-1.358,17.458-1.358"/>
	<path fill="#E48A5F" d="M55.22,95.421c0,0-5.178,11.782-2.74,14.22c2.319,2.319,24.321-7.195,26.64-11.536
		c1.831-3.428,1.358-17.458,1.358-17.458"/>
	<path opacity="0.1" d="M80.479,80.647L55.22,95.421c0,0-0.348,0.794-0.821,2.008l0.367,0.367l1.247-0.539
		c0.547-0.236,12.014-5.237,24.513-14.175C80.511,81.608,80.479,80.647,80.479,80.647z"/>
	<path opacity="0.1" d="M56.922,59.474c-8.95,12.521-13.953,23.99-14.179,24.513l-0.539,1.247l0.367,0.367
		c1.214-0.472,2.008-0.821,2.008-0.821l14.774-25.259C59.353,59.521,58.394,59.489,56.922,59.474z"/>
	<path fill="#E9F0F2" d="M109.633,30.367L49.899,90.101l5.32,5.32C55.22,95.421,115.216,69.502,109.633,30.367z"/>
	<path fill="#FFFFFF" d="M109.633,30.367L49.899,90.101l-5.32-5.32C44.579,84.78,70.498,24.784,109.633,30.367z"/>
	<circle fill="#4FA3C9" cx="90.3" cy="49.7" r="8.155"/>
	<circle fill="#65B9E8" cx="90.3" cy="49.7" r="7"/>
</g>
</svg>
