<?xml version="1.0" encoding="utf-8"?>
<!-- Generator: Adobe Illustrator 17.1.0, SVG Export Plug-In . SVG Version: 6.00 Build 0)  -->
<!DOCTYPE svg PUBLIC "-//W3C//DTD SVG 1.1//EN" "http://www.w3.org/Graphics/SVG/1.1/DTD/svg11.dtd">
<svg version="1.1" id="Livello_1" xmlns="http://www.w3.org/2000/svg" xmlns:xlink="http://www.w3.org/1999/xlink" x="0px" y="0px"
	 viewBox="0 0 140 140" enable-background="new 0 0 140 140" xml:space="preserve">
<g>
	<circle fill="#D2ECF9" cx="70" cy="70" r="70"/>
	<path fill="#51A1C4" d="M78.098,69.241c-1.181-0.644-4.097-0.895-4.097-0.895c-1.779-0.153-2.535-1.561-1.68-3.129l6.092-11.172
		l0,0l1.554-2.85l-2.847-1.552c-0.001-0.001-0.002-0.002-0.004-0.002l-11.174-6.094c-1.562-0.853-1.691-2.439-0.29-3.531
		c0.008-0.006,0.015-0.012,0.023-0.019c0.178-0.139,2.329-1.829,2.946-2.961l0,0l0,0l0,0c0.426-0.782,0.607-1.631,0.568-2.46
		c-0.004-0.075-0.009-0.151-0.016-0.225c-0.143-1.499-1.003-2.902-2.424-3.677c-1.421-0.775-3.067-0.738-4.404-0.047
		c-0.067,0.035-0.133,0.071-0.198,0.109c-0.718,0.416-1.334,1.028-1.76,1.81l0,0l0,0l0,0c-0.617,1.132-0.873,3.855-0.893,4.08
		c-0.001,0.01-0.002,0.02-0.003,0.029c-0.159,1.769-1.562,2.52-3.125,1.669L45.192,32.23c-0.001-0.001-0.003-0.001-0.004-0.002
		l-2.847-1.552l-1.231,2.257c-0.063,0.214-0.149,0.424-0.26,0.628l-6.093,11.172c-0.855,1.568-0.099,2.976,1.68,3.129
		c0,0,2.916,0.251,4.097,0.895c2.274,1.24,3.112,4.089,1.872,6.363c-1.24,2.274-4.089,3.112-6.363,1.872
		c-1.181-0.644-2.971-2.959-2.971-2.959c-1.092-1.413-2.685-1.286-3.54,0.282L23.44,65.486c-0.111,0.203-0.241,0.389-0.387,0.558
		l-1.231,2.257l2.851,1.554l11.176,6.095c1.566,0.851,2.972,0.095,3.125-1.682c0,0,0.251-2.916,0.895-4.097
		c1.24-2.274,4.089-3.112,6.363-1.872c2.274,1.24,3.112,4.089,1.872,6.363c-0.644,1.181-2.96,2.971-2.96,2.971
		c-1.411,1.091-1.286,2.683,0.278,3.538l11.176,6.095l2.851,1.554l1.554-2.851l6.093-11.172c0.855-1.568,2.448-1.695,3.54-0.282
		c0,0,1.791,2.316,2.971,2.959c2.274,1.24,5.122,0.402,6.363-1.872C81.21,73.33,80.372,70.481,78.098,69.241z"/>
	<path fill="#DDDDDD" d="M79.037,107.456c0.644-1.181,0.895-4.097,0.895-4.097c0.153-1.779,1.561-2.535,3.129-1.68l11.172,6.093l0,0
		l2.85,1.554l1.552-2.847c0.001-0.001,0.001-0.002,0.002-0.004l6.094-11.174c0.853-1.562,2.439-1.691,3.531-0.29
		c0.006,0.008,0.013,0.016,0.019,0.023c0.139,0.178,1.829,2.329,2.961,2.947l0,0l0,0l0,0c0.782,0.426,1.631,0.607,2.46,0.568
		c0.076-0.004,0.151-0.009,0.225-0.016c1.499-0.142,2.902-1.003,3.677-2.424c0.775-1.421,0.738-3.067,0.047-4.404
		c-0.035-0.067-0.071-0.133-0.109-0.198c-0.416-0.718-1.028-1.334-1.81-1.76l0,0l0,0l0,0c-1.132-0.617-3.855-0.873-4.08-0.893
		c-0.01-0.001-0.02-0.002-0.03-0.003c-1.769-0.159-2.519-1.562-1.668-3.125l6.094-11.174c0.001-0.001,0.001-0.003,0.002-0.004
		l1.552-2.847l-2.257-1.231c-0.214-0.063-0.424-0.149-0.628-0.26l-11.172-6.093c-1.568-0.855-2.976-0.099-3.129,1.68
		c0,0-0.251,2.916-0.895,4.097c-1.24,2.274-4.089,3.112-6.363,1.872s-3.112-4.088-1.872-6.363c0.644-1.181,2.959-2.971,2.959-2.971
		c1.413-1.092,1.286-2.685-0.282-3.54l-11.172-6.093c-0.203-0.111-0.389-0.241-0.559-0.387l-2.257-1.231l-1.554,2.85l-6.095,11.176
		c-0.851,1.566-0.095,2.972,1.682,3.125c0,0,2.916,0.251,4.097,0.895c2.274,1.24,3.112,4.089,1.872,6.363
		c-1.24,2.274-4.089,3.112-6.363,1.872c-1.181-0.644-2.971-2.959-2.971-2.959c-1.091-1.412-2.683-1.286-3.538,0.278l-6.095,11.176
		l-1.554,2.851l2.85,1.554l11.172,6.093c1.568,0.855,1.695,2.448,0.282,3.54c0,0-2.316,1.791-2.959,2.971
		c-1.24,2.274-0.402,5.122,1.872,6.363C74.948,110.568,77.796,109.731,79.037,107.456z"/>
	<path fill="#65B9E8" d="M79.099,67.24c-1.181-0.644-4.097-0.895-4.097-0.895c-1.779-0.153-2.535-1.561-1.68-3.129l6.092-11.172l0,0
		l1.554-2.85l-2.847-1.552c-0.001-0.001-0.002-0.002-0.004-0.002l-11.174-6.094c-1.562-0.853-1.691-2.439-0.29-3.531
		c0.008-0.006,0.015-0.012,0.023-0.019c0.178-0.139,2.329-1.829,2.946-2.961l0,0c0,0,0,0,0,0l0,0
		c0.426-0.782,0.607-1.631,0.568-2.46c-0.004-0.075-0.009-0.151-0.016-0.225c-0.143-1.499-1.003-2.902-2.424-3.677
		c-1.421-0.775-3.067-0.738-4.404-0.047c-0.067,0.035-0.133,0.071-0.198,0.109c-0.718,0.416-1.334,1.028-1.76,1.81l0,0l0,0l0,0
		c-0.617,1.132-0.873,3.855-0.893,4.08c-0.001,0.01-0.002,0.02-0.003,0.029c-0.159,1.769-1.562,2.52-3.125,1.669l-11.174-6.094
		c-0.001-0.001-0.003-0.001-0.004-0.002l-2.847-1.552l-1.231,2.257c-0.063,0.214-0.149,0.424-0.26,0.628l-6.093,11.172
		c-0.855,1.568-0.099,2.976,1.68,3.129c0,0,2.916,0.251,4.097,0.895c2.274,1.24,3.112,4.089,1.872,6.363
		c-1.24,2.274-4.089,3.112-6.363,1.872c-1.181-0.644-2.971-2.959-2.971-2.959c-1.092-1.413-2.685-1.286-3.54,0.282l-6.093,11.172
		c-0.111,0.203-0.241,0.389-0.387,0.558l-1.231,2.257l2.851,1.554l11.176,6.095c1.566,0.851,2.972,0.095,3.125-1.682
		c0,0,0.251-2.916,0.895-4.097c1.24-2.274,4.089-3.112,6.363-1.872c2.274,1.24,3.112,4.088,1.872,6.363
		c-0.644,1.181-2.96,2.971-2.96,2.971c-1.411,1.091-1.286,2.683,0.278,3.538l11.176,6.095l2.851,1.554l1.554-2.851l6.093-11.172
		c0.855-1.568,2.448-1.695,3.54-0.282c0,0,1.791,2.316,2.971,2.959c2.274,1.24,5.122,0.402,6.363-1.872
		C82.211,71.328,81.373,68.48,79.099,67.24z"/>
	<path fill="#FFFFFF" d="M80.037,105.455c0.644-1.181,0.895-4.097,0.895-4.097c0.153-1.779,1.561-2.535,3.129-1.68l11.172,6.093l0,0
		l2.85,1.554l1.552-2.847c0.001-0.001,0.001-0.002,0.002-0.004l6.094-11.174c0.853-1.562,2.439-1.691,3.531-0.29
		c0.006,0.008,0.013,0.016,0.019,0.023c0.139,0.178,1.829,2.329,2.961,2.947l0,0l0,0l0,0c0.782,0.426,1.631,0.607,2.46,0.568
		c0.075-0.004,0.151-0.009,0.225-0.016c1.499-0.142,2.902-1.003,3.677-2.424c0.775-1.421,0.738-3.067,0.047-4.404
		c-0.035-0.067-0.071-0.133-0.109-0.198c-0.416-0.718-1.028-1.334-1.81-1.76l0,0l0,0l0,0c-1.132-0.617-3.855-0.873-4.08-0.893
		c-0.01-0.001-0.02-0.002-0.03-0.003c-1.769-0.159-2.519-1.562-1.668-3.125l6.094-11.174c0.001-0.001,0.001-0.003,0.002-0.004
		l1.552-2.847l-2.257-1.231c-0.214-0.063-0.424-0.149-0.628-0.26l-11.172-6.093c-1.568-0.855-2.976-0.099-3.129,1.68
		c0,0-0.251,2.916-0.895,4.097c-1.24,2.274-4.089,3.112-6.363,1.872s-3.112-4.088-1.872-6.363c0.644-1.181,2.959-2.971,2.959-2.971
		c1.413-1.092,1.286-2.685-0.282-3.54l-11.172-6.093c-0.203-0.111-0.389-0.241-0.559-0.387l-2.257-1.231l-1.554,2.85l-6.095,11.176
		c-0.851,1.566-0.095,2.972,1.682,3.125c0,0,2.916,0.251,4.097,0.895c2.274,1.24,3.112,4.089,1.872,6.363
		c-1.24,2.274-4.089,3.112-6.363,1.872c-1.181-0.644-2.971-2.959-2.971-2.959c-1.091-1.412-2.683-1.286-3.538,0.278l-6.095,11.176
		l-1.554,2.851l2.85,1.554l11.172,6.093c1.568,0.855,1.695,2.448,0.282,3.54c0,0-2.316,1.791-2.959,2.971
		c-1.24,2.274-0.402,5.122,1.872,6.363S78.797,107.729,80.037,105.455z"/>
</g>
</svg>
